<svg xmlns="http://www.w3.org/2000/svg" viewBox="0 0 800 500" width="800" height="500">
  <defs>
    <linearGradient id="g3" x1="0" y1="0" x2="1" y2="1">
      <stop offset="0" stop-color="#6d4aff"/>
      <stop offset="1" stop-color="#0aa2cf"/>
    </linearGradient>
  </defs>
  <rect width="800" height="500" fill="url(#g3)"/>
  <circle cx="150" cy="100" r="170" fill="#ffffff" opacity="0.08"/>
  <circle cx="690" cy="440" r="190" fill="#ffffff" opacity="0.06"/>
  <!-- panel -->
  <rect x="190" y="120" width="420" height="260" rx="20" fill="#ffffff" fill-opacity="0.12" stroke="#ffffff" stroke-width="10"/>
  <!-- bar chart -->
  <g fill="#ffffff">
    <rect x="240" y="280" width="34" height="60" rx="6" fill-opacity="0.9"/>
    <rect x="290" y="245" width="34" height="95" rx="6" fill-opacity="0.75"/>
    <rect x="340" y="210" width="34" height="130" rx="6" fill-opacity="0.95"/>
    <rect x="390" y="255" width="34" height="85" rx="6" fill-opacity="0.7"/>
  </g>
  <!-- line / kpi -->
  <polyline points="240,200 290,180 340,190 390,160 440,170" fill="none" stroke="#ffffff" stroke-width="8" stroke-linecap="round" stroke-linejoin="round"/>
  <!-- stat chips -->
  <rect x="470" y="160" width="110" height="44" rx="10" fill="#ffffff" fill-opacity="0.85"/>
  <rect x="470" y="220" width="110" height="44" rx="10" fill="#ffffff" fill-opacity="0.4"/>
  <rect x="470" y="280" width="110" height="44" rx="10" fill="#ffffff" fill-opacity="0.25"/>
</svg>
